<?xml version="1.0" encoding="UTF-8"?>
<svg id="SVGRoot" width="32px" height="32px" version="1.1" viewBox="0 0 32 32" xmlns="http://www.w3.org/2000/svg" xmlns:cc="http://creativecommons.org/ns#" xmlns:dc="http://purl.org/dc/elements/1.1/" xmlns:rdf="http://www.w3.org/1999/02/22-rdf-syntax-ns#">
 <metadata>
  <rdf:RDF>
   <cc:Work rdf:about="">
    <dc:format>image/svg+xml</dc:format>
    <dc:type rdf:resource="http://purl.org/dc/dcmitype/StillImage"/>
    <dc:title/>
    <cc:license rdf:resource="http://creativecommons.org/licenses/by-sa/4.0/"/>
    <dc:creator>
     <cc:Agent>
      <dc:title>Siemens AG</dc:title>
     </cc:Agent>
    </dc:creator>
   </cc:Work>
   <cc:License rdf:about="http://creativecommons.org/licenses/by-sa/4.0/">
    <cc:permits rdf:resource="http://creativecommons.org/ns#Reproduction"/>
    <cc:permits rdf:resource="http://creativecommons.org/ns#Distribution"/>
    <cc:requires rdf:resource="http://creativecommons.org/ns#Notice"/>
    <cc:requires rdf:resource="http://creativecommons.org/ns#Attribution"/>
    <cc:permits rdf:resource="http://creativecommons.org/ns#DerivativeWorks"/>
    <cc:requires rdf:resource="http://creativecommons.org/ns#ShareAlike"/>
   </cc:License>
  </rdf:RDF>
 </metadata>
 <path d="m16 0a16 16 0 0 0-16 16 16 16 0 0 0 16 16 16 16 0 0 0 16-16 16 16 0 0 0-16-16zm0.67383 7.4609c1.6094 0 3.2461 0.32812 4.9102 0.98438v4.6406h-2.8359l-0.19922-2.3672c-0.57812-0.21875-1.168-0.32812-1.7695-0.32812-1.3672 0-2.4219 0.49609-3.1641 1.4883-0.78125 1.0547-1.1719 2.4375-1.1719 4.1484 0 1.9766 0.50781 3.4766 1.5234 4.5 0.78906 0.79687 1.8242 1.1953 3.1055 1.1953 0.80469 0 1.5742-0.16016 2.3086-0.48047 0.40625-0.17188 0.90234-0.4375 1.4883-0.79688l1.0781 2.9883c-0.71094 0.35937-1.3008 0.61328-1.7695 0.76172-0.9375 0.30469-2.0586 0.45703-3.3633 0.45703-1.5859 0-2.9023-0.23438-3.9492-0.70312-1.4531-0.64844-2.5508-1.6836-3.293-3.1055-0.66406-1.2656-0.99609-2.8164-0.99609-4.6523 0-3.0781 0.92188-5.4102 2.7656-6.9961 1.3438-1.1562 3.1211-1.7344 5.332-1.7344z" style="fill:#ff8c00"/>
</svg>
